<svg width="64" height="59" viewBox="0 0 64 59" fill="none" xmlns="http://www.w3.org/2000/svg">
<g filter="url(#filter0_d_406_313)">
<path fill-rule="evenodd" clip-rule="evenodd" d="M62.6666 48.3333C62.6666 52.016 59.6826 55 55.9999 55H7.99992C4.31725 55 1.33325 52.016 1.33325 48.3333V9.66663C1.33325 6.72129 3.72125 4.33329 6.66658 4.33329H33.5612L44.3599 0.421295C45.0439 0.171962 45.8012 0.525295 46.0506 1.20663L47.1879 4.33329H51.9999C54.9452 4.33329 57.3332 6.72129 57.3332 9.66663V12.3333C60.2786 12.3333 62.6666 14.7213 62.6666 17.6666V48.3333ZM6.66658 6.99996C5.19459 6.99996 3.99992 8.19463 3.99992 9.66663C3.99992 11.1386 5.19459 12.3333 6.66658 12.3333H11.2599H11.5119C11.5293 12.3266 11.5399 12.312 11.5573 12.3053L26.1999 6.99996H6.66658ZM45.4372 7.24129L44.0212 3.34263H44.0199L41.2853 4.33329H41.2892L33.9372 6.99996H33.9239L19.2053 12.3333H47.2879L45.4372 7.24129ZM54.6666 9.66663C54.6666 8.19463 53.4719 6.99996 51.9999 6.99996H48.1559L50.0946 12.3333H54.6666V9.66663ZM57.3332 15H6.66658C5.69059 15 4.78659 14.7186 3.99992 14.26V48.3333C3.99992 50.5426 5.79192 52.3333 7.99992 52.3333H55.9999C58.2092 52.3333 59.9999 50.5426 59.9999 48.3333V39H54.6666C51.7212 39 49.3332 36.612 49.3332 33.6666C49.3332 30.7213 51.7212 28.3333 54.6666 28.3333H59.9999V17.6666C59.9999 16.1946 58.8052 15 57.3332 15ZM59.9999 36.3333V31H54.6666C53.1946 31 51.9999 32.1946 51.9999 33.6666C51.9999 35.1386 53.1946 36.3333 54.6666 36.3333H59.9999ZM54.6666 32.3333H57.3332V35H54.6666V32.3333Z" fill="#F7931E"/>
</g>
<defs>
<filter id="filter0_d_406_313" x="-2.66675" y="0.341309" width="69.3333" height="62.6587" filterUnits="userSpaceOnUse" color-interpolation-filters="sRGB">
<feFlood flood-opacity="0" result="BackgroundImageFix"/>
<feColorMatrix in="SourceAlpha" type="matrix" values="0 0 0 0 0 0 0 0 0 0 0 0 0 0 0 0 0 0 127 0" result="hardAlpha"/>
<feOffset dy="4"/>
<feGaussianBlur stdDeviation="2"/>
<feComposite in2="hardAlpha" operator="out"/>
<feColorMatrix type="matrix" values="0 0 0 0 0 0 0 0 0 0 0 0 0 0 0 0 0 0 0.25 0"/>
<feBlend mode="normal" in2="BackgroundImageFix" result="effect1_dropShadow_406_313"/>
<feBlend mode="normal" in="SourceGraphic" in2="effect1_dropShadow_406_313" result="shape"/>
</filter>
</defs>
</svg>
